<svg fill="none" height="32" viewBox="0 0 183 32" width="183" xmlns="http://www.w3.org/2000/svg"><path clip-rule="evenodd" d="m9.39872 4.6092h-1.40132c-2.11916 0-4.16957 1.3511-4.16957 5.26928 0 3.78632 1.88056 5.00562 4.16957 5.00562h1.40132zm-2.1869 12.3828-4.17058 9.0227h-3.04124l4.58006-9.6488c-2.15354-1.0545-3.589231-2.9636-3.589231-6.48742 0-4.93974 3.247491-7.41016 7.109701-7.41016h3.93097v23.54638h-2.63278v-9.0227zm52.26828.6745c0-5.3044 1.9725-8.69425 5.7892-8.69425 1.4559 0 2.2951.40314 3.0069.87327l-.3559 2.48248c-.6784-.6041-1.649-1.1742-2.6833-1.1742-1.8118 0-3.105 2.1145-3.105 6.3776 0 4.229.9706 6.6456 3.0079 6.6456 1.2284 0 2.1667-.5031 2.748-1.0402l.5824 1.9475c-.8725.7722-1.9078 1.2742-3.3951 1.2742-3.4932 0-5.5951-2.9196-5.5951-8.692zm-7.3736.0329v8.4252h-2.5246v-16.91728h2.5236v7.82098l3.9127-7.82098h2.5549l-4.0432 7.95498 4.6256 8.9623h-2.75l-4.3-8.4252zm-11.8698-1.5773h4.1716c0-2.8868-.4529-5.0013-1.9078-5.0013-1.553 0-2.103 1.9805-2.2648 5.0013zm2.7804 10.2375c-3.3627 0-5.4323-2.7867-5.4323-7.989 0-5.4373 1.4559-9.39835 4.9157-9.39835 2.7167 0 4.4951 2.11455 4.4951 7.85395v1.4433h-6.7912c0 3.827 1.0343 5.8416 3.0402 5.8416 1.4226 0 2.5549-.6722 3.202-1.1424l.5814 2.0146c-1.0343.8392-2.3932 1.3763-4.0099 1.3763zm-10.7373-15.0378h-2.8128v.3021c0 3.5579-.1617 8.7613-1.5206 12.3521h4.3344v-12.6542zm3.7843 18.1256h-2.2637v-3.3228h-6.9864v3.3228h-2.2627v-5.4703h1.002c1.4882-3.5919 1.65-8.8283 1.65-13.3264v-1.44338h7.5677v14.76868h1.2942v5.4714zm-12.9687-20.24008v16.91618h-2.4902v-7.5848h-3.751v7.5859h-2.5236v-16.91728h2.5236v7.18388h3.751v-7.18388zm63.4403-7.11247h-7.0338v24.09015h-1.6511v-25.555483h10.337v25.555483h-1.6521v-24.08905zm10.0064 23.08945c1.0576 0 1.9048-.6843 2.5438-2.0541.638-1.3709.9571-3.4854.9571-6.3447 0-2.3836-.2746-4.229-.8257-5.5406-.55-1.3104-1.3093-1.96618-2.2789-1.96618-.3741 0-.732.10216-1.0727.30427-.3547.21389-.6776.48501-.9575.80411-.2972.3339-.5672.7205-.8088 1.1621-.242.4399-.4519.8998-.6279 1.3753v10.0794c.3296.7392.7381 1.2874 1.2214 1.6444.4853.3569 1.102.536 1.8502.536zm-.0991 1.3225c-.6028.009-1.1982-.1446-1.7329-.447-.4858-.2689-.9093-.6539-1.2386-1.126v6.8269h-1.5519v-23.58922h1.3538l.1314 2.96582c.3741-.8568.8695-1.62571 1.4863-2.30455.6167-.67994 1.3871-1.01936 2.3122-1.01936.6825 0 1.2982.21529 1.8492.64369.55.4284 1.0135 1.03035 1.3875 1.80472.374.7744.66 1.7037.858 2.7879s.297 2.2815.297 3.5919c0 3.313-.473 5.7845-1.42 7.4168-.9465 1.6323-2.1901 2.4495-3.731 2.4495zm11.395-1.3225c.769 0 1.425-.3449 1.964-1.0358.539-.6921.963-1.5258 1.271-2.5023v-4.9683h-1.784c-1.386 0-2.41.357-3.07 1.0721-.66.714-.991 1.8586-.991 3.4315 0 1.2863.237 2.2749.71 2.9659.473.692 1.106 1.0369 1.899 1.0369zm3.698 1.0007c-.081-.3012-.153-.6053-.215-.9117-.094-.5008-.155-1.008-.182-1.5181-.396.8568-.891 1.5367-1.487 2.0365-.593.5009-1.309.7514-2.145.7514-1.122 0-2.037-.4592-2.741-1.3764-.705-.9172-1.058-2.198-1.058-3.8424 0-1.9299.475-3.3898 1.421-4.3784s2.322-1.4829 4.128-1.4829h1.816v-2.2518c0-1.383-.231-2.3837-.694-3.0032-.462-.61952-1.155-.92928-2.079-.92928-.705 0-1.365.17356-1.982.51847-.617.34601-1.122.82821-1.52 1.44771l-.428-1.60808c.329-.47673.831-.90073 1.502-1.26871.671-.37018 1.48-.55472 2.427-.55472 1.387 0 2.449.4229 3.187 1.26871s1.107 2.1628 1.107 3.95v9.829c0 .6195.032 1.2456.099 1.8761.065.6316.153 1.115.263 1.4478zm6.175 0h-1.553v-18.01462h1.553v8.47122l5.581-8.47012h1.519l-5.482 8.36362 5.878 9.6499h-1.716l-5.78-9.3281zm13.441-16.61958v16.61958h-1.553v-16.61958h-3.863v-1.39504h9.247v1.39504h-3.832zm13.969 4.07528c0-.4779.011-.9117.033-1.3061.023-.3921.055-.7799.099-1.1611h-.099c-.107.3966-.239.7845-.396 1.1611-.162.3888-.327.7762-.495 1.1622l-5.417 12.6882h-1.32v-18.01462h1.453v12.51132c.004.848-.04 1.6954-.132 2.5375h.099c.11-.4065.242-.8052.396-1.1973.155-.3933.319-.7931.495-1.1974l5.416-12.65412h1.354v18.01462h-1.486zm6.77 12.5443h-1.552v-18.01462h1.552v8.47122l5.581-8.47012h1.52l-5.482 8.36362 5.878 9.6499h-1.718l-5.779-9.3281zm9.742 5.7185c-.175 0-.335-.0055-.479-.0176-.127-.0097-.254-.0277-.379-.0538l-.166-1.5719c.132.0473.281.0835.446.1066.166.0242.358.0362.578.0362.573 0 1.057-.2801 1.453-.8403.397-.5602.716-1.3401.958-2.3408l.131-.536-4.127-18.51442h1.552l2.642 11.75892c.155.692.286 1.3698.396 2.0376.112.6668.21 1.3456.298 2.0366h.099c.11-.714.231-1.4061.364-2.0728.131-.6668.275-1.3346.428-2.0014l2.576-11.75892h1.388l-4.262 18.94172c-.131.6195-.303 1.216-.512 1.7872-.194.5423-.455 1.0534-.776 1.5191-.297.4297-.667.7936-1.09 1.0721-.417.2746-.924.4108-1.519.4108zm12.517-18.443c-.132-.4756-.232-.9227-.298-1.3401s-.154-.8513-.264-1.3038h-.131c.043.4756.082.9589.115 1.4466.032.4888.05 1.0545.05 1.6982v12.2236h-1.322v-18.01462h1.817l2.906 11.00982c.176.6426.297 1.1907.364 1.6432.065.4537.12.9184.164 1.3951h.132c.044-.4767.105-.9414.182-1.3951.077-.4525.203-.9995.379-1.6432l2.972-11.00872h1.784v18.01462h-1.486v-12.2258c-.006-1.0621.038-2.1238.131-3.1811h-.131c-.088.5009-.171.9655-.248 1.3939s-.171.8579-.28 1.2863l-2.774 10.5803h-1.288l-2.775-10.5803z" fill="#000" fill-rule="evenodd"/></svg>